<?xml version="1.0" standalone="no"?>
<!DOCTYPE svg PUBLIC "-//W3C//DTD SVG 1.1//EN" "http://www.w3.org/Graphics/SVG/1.1/DTD/svg11.dtd">
<!--Generator: Xara Designer (www.xara.com), SVG filter version: 6.7.0.0-->
<svg fill="none" fill-rule="evenodd" stroke="black" stroke-width="0.501" stroke-linejoin="bevel" stroke-miterlimit="10" font-family="Times New Roman" font-size="16" style="font-variant-ligatures:none" xmlns:xlink="http://www.w3.org/1999/xlink" xmlns="http://www.w3.org/2000/svg" version="1.1" overflow="visible" width="997.071pt" height="194.649pt" viewBox="193.12 -565.041 997.071 194.649">
 <defs>
	</defs>
 <g id="Layer 1" transform="scale(1 -1)">
  <path d="M 1190.19,370.392 L 193.12,370.392 L 193.12,565.041 L 1190.19,565.041 L 1190.19,370.392 Z" stroke="none" fill-rule="nonzero" marker-start="none" marker-end="none"/>
  <path d="M 986.978,435.077 L 968.965,525.747 C 968.844,526.386 968.763,527.111 968.681,527.796 C 968.618,528.312 968.561,528.827 968.494,529.248 C 968.333,530.995 968.267,532.747 968.295,534.504 C 968.263,550.819 981.445,564.086 997.763,564.161 L 997.928,564.161 C 1014.21,564.097 1027.38,550.89 1027.4,534.608 C 1027.4,532.858 1027.4,531.169 1027.23,529.412 C 1027.13,528.814 1027.08,528.304 1027.01,527.776 C 1026.93,527.093 1026.85,526.366 1026.73,525.744 L 1008.74,435.173 C 1007.41,429.736 1005.69,428.493 999.538,428.493 L 996.16,428.493 C 990.008,428.493 988.293,429.72 986.978,435.077 Z" stroke="none" fill="#ffce1b" stroke-width="0" fill-rule="nonzero" stroke-linejoin="miter" marker-start="none" marker-end="none"/>
  <path d="M 945.399,408.856 L 868.554,460.234 C 868.024,460.614 867.462,461.059 866.922,461.483 C 866.504,461.81 866.096,462.133 865.747,462.379 C 864.401,463.504 863.115,464.702 861.9,465.958 C 850.339,477.478 850.303,496.184 861.818,507.752 C 873.334,519.313 892.043,519.35 903.609,507.833 C 904.846,506.592 906.042,505.4 907.165,504.039 C 907.51,503.56 907.835,503.163 908.149,502.755 C 908.566,502.206 909.018,501.632 909.396,501.091 L 960.723,424.322 C 963.637,419.52 963.303,417.45 958.941,413.085 L 956.551,410.693 C 954.045,408.188 952.29,407.015 950.354,407.015 C 948.567,407.173 946.853,407.812 945.399,408.856 Z" stroke="none" fill="#ffce1b" stroke-width="0" fill-rule="nonzero" stroke-linejoin="miter" marker-start="none" marker-end="none"/>
  <path d="M 1054.54,372.022 L 1054.54,373.474 C 1054.54,379.628 1055.77,381.34 1061.12,382.659 L 1151.8,400.667 C 1152.43,400.78 1153.14,400.868 1153.83,400.947 C 1154.36,401.008 1154.87,401.066 1155.29,401.141 L 1160.54,401.33 L 1160.55,401.334 L 1160.54,401.33 L 1163.55,401.187 C 1177.41,399.811 1188.48,388.871 1190.01,375.027 L 1190.19,372.061 L 1190.19,372.022 L 1054.54,372.022 Z" stroke="none" fill="#ffce1b" stroke-width="0" fill-rule="nonzero" stroke-linejoin="miter" marker-start="none" marker-end="none"/>
  <path d="M 835,401.353 C 836.734,401.387 838.466,401.329 840.194,401.189 C 840.779,401.088 841.286,401.035 841.81,400.973 C 842.498,400.889 843.217,400.801 843.862,400.692 L 934.435,382.7 L 934.435,382.704 C 939.888,381.368 941.118,379.647 941.118,373.498 L 941.118,372.015 L 805.461,372.015 C 805.59,388.241 818.769,401.334 835,401.353 Z" stroke="none" fill="#ffce1b" stroke-width="0" fill-rule="nonzero" stroke-linejoin="miter" marker-start="none" marker-end="none"/>
  <path d="M 1039.12,410.685 L 1036.74,413.079 C 1032.39,417.424 1032.04,419.508 1034.9,424.224 L 1086.27,501.07 C 1086.65,501.603 1087.09,502.167 1087.52,502.705 C 1087.85,503.127 1088.17,503.528 1088.42,503.876 C 1089.53,505.211 1090.72,506.487 1091.97,507.7 C 1099.39,515.281 1110.31,518.303 1120.58,515.609 C 1130.84,512.92 1138.88,504.928 1141.62,494.675 C 1144.37,484.423 1141.4,473.489 1133.86,466.022 C 1132.62,464.786 1131.43,463.59 1130.08,462.472 C 1129.58,462.114 1129.17,461.796 1128.75,461.46 L 1128.75,461.475 C 1128.22,461.038 1127.65,460.598 1127.12,460.228 L 1050.36,408.902 C 1048.88,407.831 1047.13,407.179 1045.31,407.018 C 1043.37,407.018 1041.62,408.19 1039.12,410.685 Z" stroke="none" fill="#ffce1b" stroke-width="0" fill-rule="nonzero" stroke-linejoin="miter" marker-start="none" marker-end="none"/>
  <path d="M 997.832,401.505 C 1014.12,401.505 1027.32,388.302 1027.32,372.015 L 968.344,372.015 C 968.344,388.302 981.545,401.505 997.832,401.505 Z" stroke="none" fill="#ffce1b" stroke-width="0" fill-rule="nonzero" stroke-linejoin="miter" marker-start="none" marker-end="none"/>
  <path d="M 193.12,496.034 L 193.12,563.336 L 220.343,563.336 C 237.476,563.336 246.962,553.24 246.962,539.481 C 247.329,531.042 242.445,523.245 234.689,519.89 L 248.644,496.034 L 229.148,496.034 L 217.269,517.116 L 211.135,517.116 L 211.135,496.034 L 193.12,496.034 Z M 228.85,539.481 C 228.85,545.028 225.582,548.095 219.446,548.095 L 211.135,548.095 L 211.135,530.871 L 219.446,530.871 C 225.582,530.871 228.85,533.935 228.85,539.481 Z" stroke="none" fill="#54ade1" stroke-width="0" fill-rule="nonzero" stroke-linejoin="miter" marker-start="none" marker-end="none"/>
  <path d="M 251.985,529.688 L 251.996,529.688 C 251.996,549.976 268.724,564.132 288.129,564.132 C 307.529,564.132 324.256,549.976 324.256,529.688 C 324.256,509.395 307.527,495.141 288.129,495.141 C 268.729,495.141 251.985,509.395 251.985,529.688 Z M 305.842,529.688 L 305.829,529.688 C 305.829,540.282 299.396,548.495 288.112,548.495 C 276.828,548.495 270.394,540.276 270.394,529.688 C 270.394,519.093 276.823,510.78 288.112,510.78 C 299.396,510.78 305.842,519.104 305.842,529.688 Z" stroke="none" fill="#54ade1" stroke-width="0" fill-rule="nonzero" stroke-linejoin="miter" marker-start="none" marker-end="none"/>
  <path d="M 343.77,496.034 L 343.77,548.195 L 325.954,548.195 L 325.954,563.336 L 379.603,563.336 L 379.603,548.195 L 361.787,548.195 L 361.787,496.034 L 343.77,496.034 Z" stroke="none" fill="#54ade1" stroke-width="0" fill-rule="nonzero" stroke-linejoin="miter" marker-start="none" marker-end="none"/>
  <path d="M 381.255,529.688 C 381.255,549.976 397.979,564.132 417.399,564.132 C 436.817,564.132 453.523,549.976 453.523,529.688 C 453.523,509.395 436.797,495.141 417.399,495.141 C 397.997,495.141 381.255,509.395 381.255,529.688 Z M 435.092,529.688 L 435.096,529.688 C 435.096,540.282 428.665,548.495 417.384,548.495 C 406.1,548.495 399.659,540.276 399.659,529.688 C 399.659,519.093 406.097,510.78 417.381,510.78 C 428.665,510.78 435.092,519.093 435.092,529.688 Z" stroke="none" fill="#54ade1" stroke-width="0" fill-rule="nonzero" stroke-linejoin="miter" marker-start="none" marker-end="none"/>
  <path d="M 461.424,496.034 L 461.424,563.336 L 479.437,563.336 L 479.437,511.179 L 508.043,511.179 L 508.043,496.034 L 461.424,496.034 Z" stroke="none" fill="#54ade1" stroke-width="0" fill-rule="nonzero" stroke-linejoin="miter" marker-start="none" marker-end="none"/>
  <path d="M 559.142,496.031 L 555.577,504.149 L 532.117,504.149 L 528.75,496.046 L 511.131,496.046 L 543.9,564.521 C 544.211,565.215 544.788,565.215 545.089,564.521 L 577.749,496.031 L 559.142,496.031 Z M 549.83,517.211 L 543.701,531.469 L 537.658,517.211 L 549.83,517.211 Z" stroke="none" fill="#54ade1" stroke-width="0" fill-rule="nonzero" stroke-linejoin="miter" marker-start="none" marker-end="none"/>
  <path d="M 641.71,494.843 L 599.445,529.595 L 599.445,496.034 L 582.516,496.034 L 582.516,564.231 C 582.516,564.819 582.827,565.318 583.904,564.427 L 626.169,529.595 L 626.169,563.336 L 643.094,563.336 L 643.094,495.039 C 643.094,494.246 642.786,493.948 641.71,494.843 Z" stroke="none" fill="#54ade1" stroke-width="0" fill-rule="nonzero" stroke-linejoin="miter" marker-start="none" marker-end="none"/>
  <path d="M 654.79,496.034 L 654.79,563.336 L 680.825,563.336 C 700.221,563.336 714.869,550.561 714.869,529.688 C 714.869,508.811 700.226,496.034 680.825,496.034 L 654.79,496.034 Z M 696.462,529.688 C 696.462,540.864 689.731,548.095 678.848,548.095 L 672.815,548.095 L 672.815,511.277 L 678.848,511.277 C 689.731,511.277 696.462,518.501 696.462,529.688 Z" stroke="none" fill="#54ade1" stroke-width="0" fill-rule="nonzero" stroke-linejoin="miter" marker-start="none" marker-end="none"/>
  <path d="M 719.216,529.688 C 719.216,549.976 735.943,564.132 755.356,564.132 C 774.776,564.132 791.487,549.976 791.487,529.688 C 791.487,509.395 774.758,495.141 755.356,495.141 C 735.962,495.141 719.216,509.395 719.216,529.688 Z M 773.053,529.688 L 773.061,529.688 C 773.061,540.282 766.625,548.495 755.348,548.495 C 744.062,548.495 737.63,540.276 737.63,529.688 C 737.63,519.093 744.062,510.78 755.348,510.78 C 766.625,510.78 773.053,519.104 773.053,529.688 Z" stroke="none" fill="#54ade1" stroke-width="0" fill-rule="nonzero" stroke-linejoin="miter" marker-start="none" marker-end="none"/>
  <path d="M 221.645,421.208 L 193.12,482.475 L 210.414,482.475 L 222.808,454.213 L 234.847,482.475 L 251.341,482.475 L 222.722,421.208 C 222.65,420.973 222.43,420.805 222.184,420.805 C 221.935,420.805 221.715,420.973 221.645,421.208 Z" stroke="none" fill="#54ade1" stroke-width="0" fill-rule="nonzero" stroke-linejoin="miter" marker-start="none" marker-end="none"/>
  <path d="M 255.725,421.834 L 255.725,482.475 L 298.254,482.475 L 298.254,468.836 L 271.952,468.836 L 271.952,458.844 L 293.886,458.844 L 293.886,445.921 L 271.952,445.921 L 271.952,435.487 L 299.502,435.487 L 299.502,421.834 L 255.725,421.834 Z" stroke="none" fill="#54ade1" stroke-width="0" fill-rule="nonzero" stroke-linejoin="miter" marker-start="none" marker-end="none"/>
  <path d="M 307.749,421.834 L 307.749,482.475 L 332.271,482.475 C 347.694,482.475 356.262,473.381 356.262,460.976 C 356.581,453.373 352.183,446.354 345.194,443.331 L 357.771,421.834 L 340.203,421.834 L 329.509,440.841 L 323.979,440.841 L 323.979,421.834 L 307.749,421.834 Z M 339.929,460.971 C 339.929,465.958 336.987,468.727 331.454,468.727 L 323.979,468.727 L 323.979,453.215 L 331.454,453.215 C 336.987,453.215 339.929,455.976 339.929,460.971 Z" stroke="none" fill="#54ade1" stroke-width="0" fill-rule="nonzero" stroke-linejoin="miter" marker-start="none" marker-end="none"/>
  <path d="M 359.334,432.177 L 359.334,432.189 L 371.1,441.012 C 373.977,436.866 378.708,434.399 383.762,434.417 C 388.571,434.417 391.428,435.839 391.428,439.231 C 391.428,441.814 389.465,443.061 385.456,444.4 L 378.322,446.806 C 369.493,449.751 363.257,455.103 363.257,465.088 C 363.257,477.032 373.15,483.187 383.939,483.187 C 394.638,483.187 401.054,479.351 404.625,475.159 L 395.352,465.441 C 392.64,468.35 388.801,469.941 384.829,469.804 C 380.906,469.804 378.947,468.016 378.947,465.611 C 378.947,463.292 380.285,462.133 383.225,461.154 L 391.25,458.478 C 403.373,454.464 407.48,448.673 407.48,440.114 C 407.48,428.969 400.525,420.941 384.477,420.941 C 370.835,420.941 363.071,427.176 359.334,432.177 Z" stroke="none" fill="#54ade1" stroke-width="0" fill-rule="nonzero" stroke-linejoin="miter" marker-start="none" marker-end="none"/>
  <path d="M 410.784,452.161 C 410.784,470.436 425.85,483.187 443.326,483.187 C 460.806,483.187 475.873,470.438 475.873,452.161 C 475.873,433.879 460.806,421.04 443.326,421.04 C 425.85,421.04 410.784,433.879 410.784,452.161 Z M 459.285,452.161 C 459.285,461.698 453.492,469.102 443.326,469.102 C 433.161,469.102 427.364,461.698 427.364,452.161 C 427.364,442.621 433.161,435.126 443.326,435.126 C 453.492,435.126 459.285,442.604 459.285,452.161 Z" stroke="none" fill="#54ade1" stroke-width="0" fill-rule="nonzero" stroke-linejoin="miter" marker-start="none" marker-end="none"/>
  <path d="M 486.456,390.881 L 486.461,390.881 L 507.922,406.976 C 513.287,400.309 519.951,394.944 531.009,394.944 C 539.79,394.944 544.985,397.545 544.985,403.723 C 544.985,408.436 541.413,410.711 534.084,413.154 L 521.081,417.543 C 504.981,422.913 493.601,432.66 493.601,450.885 C 493.601,472.669 511.648,483.886 531.325,483.886 C 550.833,483.886 562.54,476.893 569.041,469.242 L 552.133,451.524 C 547.192,456.827 540.194,459.734 532.948,459.488 C 525.781,459.491 522.215,456.238 522.215,451.853 C 522.215,447.617 524.661,445.508 530.005,443.722 L 544.651,438.84 C 566.773,431.524 574.253,420.96 574.253,405.352 C 574.253,385.024 561.572,370.397 532.306,370.397 C 507.425,370.397 493.286,381.774 486.456,390.881 Z" stroke="none" fill="#54ade1" stroke-width="0" fill-rule="nonzero" stroke-linejoin="miter" marker-start="none" marker-end="none"/>
  <path d="M 582.747,414.775 L 582.706,414.775 L 582.706,482.573 L 612.307,482.573 L 612.307,415.105 C 612.307,402.584 618.162,395.431 630.691,395.431 C 643.221,395.431 649.076,402.595 649.076,415.105 L 649.076,482.573 L 678.675,482.573 L 678.675,414.775 C 678.675,385.024 658.351,370.392 630.711,370.392 C 603.07,370.392 582.747,385.035 582.747,414.775 Z" stroke="none" fill="#54ade1" stroke-width="0" fill-rule="nonzero" stroke-linejoin="miter" marker-start="none" marker-end="none"/>
  <path d="M 692.777,372.018 L 692.777,482.573 L 735.542,482.573 C 767.408,482.573 791.474,461.603 791.474,427.295 C 791.474,392.993 767.408,372.018 735.542,372.018 L 692.777,372.018 Z M 761.229,427.295 C 761.229,445.668 750.17,457.541 732.289,457.541 L 722.367,457.541 L 722.367,397.054 L 732.289,397.054 C 750.17,397.054 761.229,408.922 761.229,427.295 Z" stroke="none" fill="#54ade1" stroke-width="0" fill-rule="nonzero" stroke-linejoin="miter" marker-start="none" marker-end="none"/>
 </g>
</svg>
